<svg width="1024" height="1024" viewBox="0 0 1024 1024" fill="none" xmlns="http://www.w3.org/2000/svg">
<rect width="1024" height="1024"/>
<g filter="url(#filter0_d)">
<path d="M1000.61 512C1000.61 447.297 919.621 385.979 795.455 347.954C824.109 221.336 811.374 120.6 755.26 88.3478C742.326 80.7826 727.203 77.1991 710.688 77.1991V121.595C719.841 121.595 727.203 123.387 733.372 126.771C760.434 142.3 772.174 201.428 763.021 277.478C760.832 296.192 757.25 315.902 752.872 336.009C713.872 326.453 671.289 319.087 626.518 314.309C599.655 277.478 571.797 244.032 543.74 214.767C608.609 154.444 669.498 121.396 710.887 121.396V77C656.166 77 584.532 116.021 512.102 183.709C439.672 116.419 368.038 77.7963 313.317 77.7963V122.192C354.507 122.192 415.595 155.041 480.464 214.966C452.606 244.231 424.748 277.478 398.283 314.309C353.313 319.087 310.731 326.453 271.73 336.208C267.153 316.3 263.77 296.989 261.383 278.474C252.03 202.423 263.571 143.295 290.434 127.568C296.404 123.984 304.164 122.391 313.317 122.391V77.9954C296.603 77.9954 281.48 81.5789 268.347 89.1442C212.433 121.396 199.897 221.934 228.749 348.153C104.981 386.378 24.3929 447.497 24.3929 512C24.3929 576.703 105.379 638.021 229.545 676.046C200.891 802.664 213.626 903.4 269.74 935.652C282.674 943.217 297.797 946.801 314.511 946.801C369.232 946.801 440.866 907.78 513.296 840.091C585.726 907.382 657.36 946.005 712.081 946.005C728.795 946.005 743.918 942.421 757.051 934.856C812.966 902.604 825.501 802.066 796.649 675.847C920.019 637.821 1000.61 576.503 1000.61 512ZM741.53 379.211C734.168 404.892 725.015 431.371 714.667 457.849C706.509 441.922 697.953 425.995 688.601 410.069C679.447 394.142 669.697 378.613 659.947 363.483C688.203 367.664 715.463 372.84 741.53 379.211ZM650.396 591.236C634.875 618.112 618.956 643.595 602.441 667.286C572.792 669.874 542.746 671.268 512.5 671.268C482.453 671.268 452.407 669.874 422.957 667.485C406.442 643.794 390.324 618.51 374.803 591.833C359.68 565.753 345.951 539.275 333.415 512.597C345.752 485.92 359.681 459.243 374.604 433.162C390.125 406.286 406.044 380.803 422.559 357.112C452.208 354.524 482.255 353.13 512.5 353.13C542.547 353.13 572.593 354.524 602.043 356.913C618.558 380.604 634.676 405.888 650.197 432.565C665.32 458.645 679.049 485.124 691.585 511.801C679.049 538.478 665.32 565.156 650.396 591.236ZM714.667 565.355C725.413 592.032 734.566 618.709 742.127 644.59C716.06 650.961 688.601 656.336 660.146 660.517C669.896 645.188 679.646 629.46 688.8 613.334C697.953 597.407 706.509 581.281 714.667 565.355ZM512.898 777.778C494.393 758.666 475.887 737.364 457.581 714.071C475.489 714.867 493.796 715.465 512.301 715.465C531.006 715.465 549.511 715.066 567.619 714.071C549.71 737.364 531.205 758.666 512.898 777.778ZM364.854 660.517C336.598 656.336 309.338 651.16 283.271 644.789C290.633 619.108 299.786 592.629 310.134 566.151C318.292 582.078 326.848 598.005 336.2 613.931C345.553 629.858 355.104 645.387 364.854 660.517ZM511.903 246.222C530.409 265.334 548.914 286.636 567.221 309.929C549.312 309.133 531.006 308.535 512.5 308.535C493.796 308.535 475.29 308.934 457.183 309.929C475.091 286.636 493.597 265.334 511.903 246.222ZM364.655 363.483C354.905 378.812 345.155 394.54 336.001 410.666C326.848 426.593 318.292 442.519 310.134 458.446C299.388 431.769 290.235 405.092 282.674 379.211C308.741 373.039 336.2 367.664 364.655 363.483ZM184.575 612.737C114.135 582.675 68.5673 543.256 68.5673 512C68.5673 480.744 114.135 441.126 184.575 411.263C201.687 403.897 220.392 397.327 239.693 391.156C251.035 430.176 265.959 470.789 284.465 512.398C266.158 553.808 251.433 594.222 240.29 633.043C220.591 626.872 201.886 620.103 184.575 612.737ZM291.628 897.229C264.566 881.7 252.826 822.572 261.98 746.522C264.168 727.808 267.75 708.098 272.128 687.991C311.129 697.547 353.711 704.913 398.482 709.691C425.345 746.522 453.203 779.968 481.26 809.233C416.391 869.556 355.502 902.604 314.113 902.604C305.159 902.405 297.598 900.613 291.628 897.229ZM763.618 745.526C772.97 821.577 761.429 880.705 734.566 896.432C728.596 900.016 720.836 901.609 711.683 901.609C670.493 901.609 609.405 868.76 544.536 808.835C572.394 779.57 600.252 746.323 626.717 709.492C671.687 704.714 714.27 697.348 753.27 687.593C757.847 707.7 761.429 727.011 763.618 745.526ZM840.226 612.737C823.114 620.103 804.409 626.673 785.108 632.844C773.766 593.824 758.842 553.21 740.336 511.602C758.643 470.192 773.368 429.778 784.511 390.957C804.21 397.128 822.915 403.897 840.425 411.263C910.865 441.325 956.433 480.744 956.433 512C956.234 543.256 910.667 582.874 840.226 612.737Z" fill="white"/>
</g>
<g clip-path="url(#clip0)" filter="url(#filter1_d)">
<path d="M512.501 536.579L437.625 513.533V536.206V552.023C437.625 569.817 471.159 584.244 512.523 584.244C553.885 584.244 587.425 569.817 587.425 552.023C587.425 551.883 587.379 551.742 587.376 551.606V513.533L512.501 536.579Z" fill="white"/>
<path d="M387 487.038L413.749 496.607L416.029 491.725L425.856 490.889L427.257 492.347L418.824 494.347L417.595 497.984C417.593 497.984 398.548 537.801 401.345 557.279C401.345 557.279 413.233 564.37 425.116 557.279L428.274 504.023V499.59L445.963 495.6L444.713 498.676L431.525 502.965L437.625 505.144L512.5 528.19L587.376 505.144L638 487.038L512.5 438.755L387 487.038Z" fill="white"/>
</g>
<defs>
<filter id="filter0_d" x="19" y="77" width="987" height="878" filterUnits="userSpaceOnUse" color-interpolation-filters="sRGB">
<feFlood flood-opacity="0" result="BackgroundImageFix"/>
<feColorMatrix in="SourceAlpha" type="matrix" values="0 0 0 0 0 0 0 0 0 0 0 0 0 0 0 0 0 0 127 0"/>
<feOffset dy="4"/>
<feGaussianBlur stdDeviation="2"/>
<feColorMatrix type="matrix" values="0 0 0 0 0 0 0 0 0 0 0 0 0 0 0 0 0 0 0.25 0"/>
<feBlend mode="normal" in2="BackgroundImageFix" result="effect1_dropShadow"/>
<feBlend mode="normal" in="SourceGraphic" in2="effect1_dropShadow" result="shape"/>
</filter>
<filter id="filter1_d" x="383" y="386" width="259" height="259" filterUnits="userSpaceOnUse" color-interpolation-filters="sRGB">
<feFlood flood-opacity="0" result="BackgroundImageFix"/>
<feColorMatrix in="SourceAlpha" type="matrix" values="0 0 0 0 0 0 0 0 0 0 0 0 0 0 0 0 0 0 127 0"/>
<feOffset dy="4"/>
<feGaussianBlur stdDeviation="2"/>
<feColorMatrix type="matrix" values="0 0 0 0 0 0 0 0 0 0 0 0 0 0 0 0 0 0 0.25 0"/>
<feBlend mode="normal" in2="BackgroundImageFix" result="effect1_dropShadow"/>
<feBlend mode="normal" in="SourceGraphic" in2="effect1_dropShadow" result="shape"/>
</filter>
<clipPath id="clip0">
<rect width="251" height="251" fill="white" transform="translate(387 386)"/>
</clipPath>
</defs>
</svg>
